<svg
  viewBox="0 0 1600 1280"
  class="inline-block"
  width="24"
  height="24"
  astro-icon="fa:twitter"
>
  <path
    fill="currentColor"
    d="M1588 152q-67 98-162 167 1 14 1 42 0 130-38 259.5T1273.5 869 1089 1079.5t-258 146-323 54.5q-271 0-496-145 35 4 78 4 225 0 401-138-105-2-188-64.5T189 777q33 5 61 5 43 0 85-11-112-23-185.5-111.5T76 454v-4q68 38 146 41-66-44-105-115T78 222q0-88 44-163 121 149 294.5 238.5T788 397q-8-38-8-74 0-134 94.5-228.5T1103 0q140 0 236 102 109-21 205-78-37 115-142 178 93-10 186-50z"
  >
  </path>
</svg>
